<svg width="54" height="68" viewBox="0 0 54 68" fill="none" xmlns="http://www.w3.org/2000/svg">
<path d="M0 17.2741V44.0848C0 45.4775 0.730313 46.7542 1.92188 47.4506L24.9844 60.8366C26.1759 61.533 27.6366 61.533 28.8281 60.8366L51.8906 47.4506C53.0822 46.7542 53.8125 45.4775 53.8125 44.0848V17.2741C53.8125 15.8813 53.0822 14.6046 51.8906 13.9083L28.8281 0.522285C27.6366 -0.174095 26.1759 -0.174095 24.9844 0.522285L1.92188 13.947C0.730313 14.6433 0 15.92 0 17.2741Z" fill="#EF1620"/>
<path d="M36.5156 67.5303L36.4772 61.7271L36.5156 56.3882L23.0625 59.7153" fill="#EF1620"/>
<path d="M35.9004 55.9238L38.4373 55.2661L37.4763 55.8077C36.8998 56.1559 36.5154 56.7749 36.5154 57.4713V58.5546L35.9004 55.9238Z" fill="#EF1620"/>
<path d="M16.8125 15.5L18.3125 12L19.8125 15.5H22.8125L21.3125 18L22.3125 21.5L18.3125 20L14.8125 21.5L15.8125 18L13.8125 15.5H16.8125Z" fill="#FFFF00"/>
<path d="M16.8125 25.5L18.3125 22L19.8125 25.5H22.8125L21.3125 28L22.3125 31.5L18.3125 30L14.8125 31.5L15.8125 28L13.8125 25.5H16.8125Z" fill="#FFFF00"/>
<path d="M16.8125 37.5L18.3125 34L19.8125 37.5H22.8125L21.3125 40L22.3125 43.5L18.3125 42L14.8125 43.5L15.8125 40L13.8125 37.5H16.8125Z" fill="#FFFF00"/>
<path d="M29.8125 37.5L31.3125 34L32.8125 37.5H35.8125L34.3125 40L35.3125 43.5L31.3125 42L27.8125 43.5L28.8125 40L26.8125 37.5H29.8125Z" fill="#FFFF00"/>
<path d="M29.8125 15.5L31.3125 12L32.8125 15.5H35.8125L34.3125 18L35.3125 21.5L31.3125 20L27.8125 21.5L28.8125 18L26.8125 15.5H29.8125Z" fill="#FFFF00"/>
</svg>
